<svg width="35" height="53" viewBox="0 0 35 53" fill="none" xmlns="http://www.w3.org/2000/svg">
<path d="M8.09503 46.1173C8.66459 47.5752 9.23414 49.033 9.8037 50.4908L10.4872 49.697C9.18475 49.3457 7.8823 48.9944 6.57985 48.6432C6.39383 48.593 6.20781 48.5428 6.0218 48.4927C5.64318 48.3906 5.2985 48.5878 5.272 48.9423C5.24605 49.2895 5.54396 49.6885 5.92434 49.7911C7.22679 50.1424 8.52924 50.4936 9.83169 50.8449C10.0177 50.8951 10.2037 50.9452 10.3897 50.9954C10.9388 51.1435 11.2691 50.7029 11.0732 50.2016C10.5037 48.7437 9.89298 47.1806 9.36457 45.8281C9.22291 45.4655 8.75619 45.2345 8.42827 45.3091C8.06716 45.3912 7.95304 45.7539 8.09503 46.1173Z" fill="#006E2C"/>
<path d="M19.9992 1C69.4998 35.5 -27.4999 16 9.5 49.5" stroke="#006E2C"/>
</svg>
