<svg width="863" height="645" viewBox="0 0 863 645" fill="none" xmlns="http://www.w3.org/2000/svg">
<g clip-path="url(#clip0_44_112)">
<path d="M629.943 612.644H612.777L604.608 546.435H629.943V612.644Z" fill="#9E616A"/>
<path d="M639.003 642.385H626.693L624.495 630.763L618.868 642.385H586.219C584.654 642.385 583.13 641.885 581.869 640.958C580.609 640.03 579.678 638.724 579.212 637.23C578.746 635.736 578.77 634.132 579.281 632.653C579.791 631.173 580.761 629.896 582.049 629.007L608.121 611V599.25L635.545 600.887L639.003 642.385Z" fill="#2F2E41"/>
<path d="M731.923 590.981L718.148 601.224L672.085 552.969L692.415 537.851L731.923 590.981Z" fill="#9E616A"/>
<path d="M756.94 609.441L747.062 616.786L738.363 608.771L740.783 621.456L714.583 640.938C713.328 641.872 711.806 642.38 710.241 642.388C708.676 642.396 707.15 641.903 705.884 640.982C704.619 640.061 703.681 638.76 703.208 637.268C702.735 635.776 702.751 634.172 703.254 632.69L713.431 602.683L706.42 593.255L729.403 578.204L756.94 609.441Z" fill="#2F2E41"/>
<path d="M649.927 271.04C649.927 271.04 682.496 299.178 667.469 379.392L649.124 457.989L708.953 557.245L689.877 580.452L612.097 473.019L583.912 406.905L576.003 289.236L649.927 271.04Z" fill="#E6E6E6"/>
<path d="M599.447 425.746L597.488 456.084L603.483 585.365L631.692 580.452L637.083 488.406L599.447 425.746Z" fill="#E6E6E6"/>
<path d="M237.445 628.211L252.796 628.21L260.098 569.001L237.443 569.002L237.445 628.211Z" fill="#FFB6B6"/>
<path d="M233.53 623.199L237.85 623.199L254.719 616.339L263.76 623.198H263.762C268.871 623.198 273.771 625.228 277.384 628.841C280.997 632.454 283.027 637.354 283.027 642.463V643.089L233.531 643.091L233.53 623.199Z" fill="#2F2E41"/>
<path d="M296.932 618.538L311.905 621.918L332.071 565.772L309.972 560.782L296.932 618.538Z" fill="#FFB6B6"/>
<path d="M294.216 612.786L298.431 613.738L316.397 610.762L323.705 619.444L323.706 619.444C328.69 620.57 333.022 623.63 335.751 627.949C338.479 632.269 339.38 637.496 338.255 642.48L338.117 643.091L289.835 632.19L294.216 612.786Z" fill="#2F2E41"/>
<path d="M218.003 266.236C210.806 287.942 211.567 311.504 219.733 336.792L223.224 479.17C223.224 479.17 218.023 572.539 234.806 605.395H259.146L271.197 470.643L272.71 380.197L324.893 456.503L291.656 603.192L321.613 605.87L375.547 446.679L309.003 292.236L218.003 266.236Z" fill="#3F3D56"/>
<path d="M572.445 260.584C572.125 261.935 572.146 263.344 572.505 264.684C572.865 266.025 573.551 267.256 574.504 268.266C574.994 268.782 574.13 269.471 573.643 268.958C572.596 267.838 571.839 266.478 571.439 264.997C571.039 263.516 571.007 261.96 571.347 260.465C571.367 260.321 571.442 260.191 571.555 260.1C571.668 260.009 571.811 259.964 571.956 259.975C572.101 259.992 572.234 260.065 572.326 260.179C572.417 260.293 572.46 260.438 572.445 260.584Z" fill="white"/>
<path d="M456.382 173.13C455.356 174.48 454.046 175.588 452.545 176.377C451.044 177.166 449.388 177.617 447.695 177.696C446.001 177.776 444.31 177.484 442.741 176.839C441.173 176.195 439.764 175.215 438.616 173.967L400.815 190.407L404.497 169.306L439.829 156.929C442.052 155.138 444.855 154.225 447.707 154.363C450.559 154.501 453.261 155.68 455.301 157.677C457.342 159.674 458.579 162.35 458.778 165.198C458.977 168.046 458.125 170.868 456.382 173.13Z" fill="#FFB8B8"/>
<path d="M431.157 179.718L343.36 218.826L343.171 218.759L243.104 183.1C235.651 179.205 229.968 172.607 227.22 164.659C224.472 156.71 224.867 148.012 228.323 140.344C230.238 136.108 233.03 132.326 236.513 129.246C239.996 126.166 244.091 123.859 248.53 122.477C252.969 121.094 257.65 120.667 262.266 121.224C266.882 121.781 271.327 123.309 275.31 125.708L349.778 170.567L421.99 161.208L431.157 179.718Z" fill="#E6E6E6"/>
<path d="M313.344 296.796L224.838 282.64C222.517 281.896 220.384 280.659 218.586 279.014C216.787 277.368 215.367 275.353 214.421 273.107C213.475 270.86 213.027 268.436 213.106 266C213.186 263.563 213.792 261.173 214.882 258.994L218.896 250.965L217.337 166.619C217.149 155.647 219.854 144.82 225.179 135.225C230.505 125.631 238.263 117.609 247.673 111.965L256.304 106.804L260.666 95.7275L300.886 96.7085L301.003 111.236L315.407 134.204L315.407 134.299L314.503 259.313L310.533 272.214L316.535 287.22L313.344 296.796Z" fill="#E6E6E6"/>
<path d="M284.459 81.954C304.642 81.954 321.003 65.5926 321.003 45.4099C321.003 25.2271 304.642 8.86572 284.459 8.86572C264.276 8.86572 247.915 25.2271 247.915 45.4099C247.915 65.5926 264.276 81.954 284.459 81.954Z" fill="#FFB8B8"/>
<path d="M246.405 53.3766C245.315 48.7847 245.816 42.3231 246.432 37.6996C248.047 25.5783 254.778 14.0549 265.005 7.22912C266.944 5.75629 269.249 4.84057 271.67 4.58067C274.089 4.47967 276.712 5.77484 277.454 8.07966C278.064 6.55847 278.979 5.17833 280.142 4.02444C281.306 2.87054 282.694 1.96736 284.22 1.37066C287.286 0.196015 290.583 -0.248208 293.851 0.0732035C300.184 0.595243 306.258 2.82216 311.427 6.51763C316.597 10.2131 320.67 15.2392 323.214 21.0627C324.19 23.3815 326.916 14.8165 328.153 17.0074C329.289 19.2847 331.272 21.0268 333.677 21.8608C336.1 22.537 337.084 32.5212 338.038 30.193C338.778 31.9136 339.07 33.7934 338.888 35.6574C338.706 37.5214 338.055 39.309 336.996 40.8537C335.937 42.3984 334.504 43.6499 332.831 44.4917C331.158 45.3336 329.299 45.7383 327.427 45.6683C324.961 45.576 322.603 44.6688 320.165 44.2783C311.45 42.8819 302.205 49.2014 300.342 57.8289C299.675 55.3339 298.61 52.9631 297.187 50.8079C296.464 49.7359 295.496 48.852 294.364 48.2295C293.231 47.6071 291.966 47.2641 290.673 47.2292C288.194 47.322 286.014 48.9431 284.406 50.8322C282.797 52.7212 281.588 54.9251 279.968 56.804C275.212 62.317 268.78 75.1737 262.003 74.236C256.655 73.4961 247.894 59.6462 246.405 53.3766Z" fill="#2F2E41"/>
<path d="M505.364 214.541C505.62 212.875 505.277 211.172 504.397 209.734C503.518 208.297 502.157 207.217 500.557 206.687L402.144 173.91C401.2 173.594 400.201 173.48 399.211 173.573L374.544 175.906L360.39 177.248L334.271 179.717C332.694 179.867 331.212 180.537 330.057 181.621C328.902 182.705 328.139 184.142 327.888 185.706L314.627 268.544C314.376 270.16 314.683 271.813 315.498 273.23C316.314 274.648 317.588 275.744 319.111 276.34L418.551 314.724C419.018 314.905 419.503 315.036 419.998 315.113C420.718 315.229 421.452 315.235 422.173 315.129L486.429 305.606C487.944 305.386 489.349 304.684 490.434 303.603C491.519 302.523 492.226 301.121 492.452 299.606L505.364 214.541Z" fill="white"/>
<path d="M321.365 270.503L420.805 308.885C420.95 308.943 421.108 308.961 421.262 308.939L485.509 299.417C485.7 299.391 485.876 299.303 486.013 299.168C486.149 299.032 486.237 298.856 486.264 298.665L499.184 213.598C499.213 213.391 499.17 213.179 499.06 213C498.951 212.821 498.783 212.686 498.584 212.617L497.923 212.393L400.165 179.847C400.121 179.831 400.075 179.82 400.028 179.814C399.952 179.8 399.875 179.796 399.798 179.802L339.633 185.495L334.859 185.943C334.663 185.964 334.48 186.048 334.336 186.183C334.193 186.318 334.097 186.497 334.064 186.691L320.805 269.525C320.773 269.728 320.811 269.935 320.913 270.113C321.015 270.291 321.174 270.428 321.365 270.503Z" fill="#20E466"/>
<path d="M339.634 185.495L399.798 179.802C399.875 179.796 399.952 179.8 400.028 179.814C400.075 179.82 400.121 179.831 400.165 179.847L497.923 212.393L472.136 215.123L462.486 216.139L435.025 219.041C434.945 219.045 434.865 219.044 434.785 219.038C434.736 219.023 434.687 219.008 434.628 218.993L339.634 185.495Z" fill="#2F2E41"/>
<path d="M319.109 276.345L418.549 314.727C419.017 314.908 419.504 315.035 420 315.107C420.72 315.226 421.454 315.235 422.177 315.134L486.424 305.612C487.94 305.391 489.345 304.688 490.431 303.607C491.517 302.526 492.225 301.124 492.452 299.608L505.362 214.541C505.553 213.286 505.409 212.004 504.944 210.824C504.879 210.667 504.813 210.51 504.737 210.362C504.225 209.284 503.446 208.356 502.473 207.665C501.888 207.244 501.242 206.915 500.557 206.688L500.441 206.647L402.149 173.909C401.748 173.781 401.337 173.681 400.922 173.611C400.354 173.531 399.778 173.519 399.207 173.578L374.544 175.902L360.392 177.252L334.269 179.719C333.2 179.819 332.168 180.16 331.25 180.716C331.179 180.751 331.111 180.791 331.048 180.838C331.002 180.867 330.959 180.9 330.918 180.936C330.116 181.483 329.435 182.187 328.914 183.006C328.394 183.825 328.046 184.742 327.891 185.699L314.621 268.543C314.37 270.16 314.678 271.814 315.494 273.233C316.31 274.651 317.585 275.749 319.109 276.345ZM329.651 185.988C329.813 184.995 330.253 184.069 330.921 183.317C331.124 183.075 331.35 182.854 331.597 182.658C332.272 182.113 333.069 181.741 333.921 181.574C334.089 181.54 334.259 181.516 334.43 181.502L378.414 177.347L399.379 175.352C399.521 175.336 399.652 175.338 399.783 175.33C400.1 175.324 400.418 175.347 400.731 175.401C401.019 175.438 401.302 175.506 401.575 175.602L499.984 208.381C500.062 208.408 500.129 208.435 500.207 208.463C501.102 208.795 501.888 209.367 502.48 210.116C502.948 210.69 503.29 211.355 503.483 212.069C503.676 212.784 503.716 213.531 503.601 214.262L490.68 299.338C490.511 300.473 489.981 301.523 489.169 302.334C488.357 303.144 487.306 303.672 486.172 303.84L421.914 313.361C420.995 313.493 420.058 313.386 419.192 313.051L319.751 274.679C318.611 274.229 317.658 273.406 317.047 272.344C316.437 271.282 316.206 270.043 316.391 268.833L329.651 185.988Z" fill="#3F3D56"/>
<path d="M330.704 181.387C330.756 181.237 330.849 181.103 330.972 181.001C331.013 180.968 331.056 180.939 331.101 180.913C331.142 180.897 331.185 180.871 331.227 180.855C331.426 180.774 331.649 180.771 331.851 180.844L333.921 181.574L435.036 217.243L458.702 214.743L471.944 213.346L499.974 210.379L502.48 210.116L502.967 210.062C503.177 210.043 503.388 210.098 503.561 210.217C503.735 210.337 503.862 210.513 503.92 210.716C503.933 210.763 503.942 210.81 503.946 210.859C503.967 211.051 503.924 211.245 503.825 211.412C503.726 211.578 503.575 211.708 503.396 211.781C503.317 211.814 503.233 211.836 503.148 211.848L499.739 212.205L472.136 215.123L462.486 216.139L435.025 219.041C434.945 219.045 434.865 219.044 434.785 219.038C434.736 219.023 434.687 219.008 434.628 218.993L331.597 182.658L331.247 182.534C331.167 182.508 331.093 182.467 331.028 182.413C330.872 182.298 330.756 182.137 330.698 181.953C330.64 181.769 330.642 181.57 330.704 181.387Z" fill="#3F3D56"/>
<path d="M420.271 315.367C420.038 315.33 419.829 315.203 419.69 315.012C419.551 314.822 419.493 314.585 419.528 314.352L434.045 218.018C434.08 217.783 434.207 217.573 434.398 217.432C434.589 217.291 434.828 217.232 435.062 217.267L435.07 217.268C435.303 217.306 435.511 217.433 435.65 217.623C435.789 217.814 435.848 218.051 435.812 218.284L421.296 314.618C421.26 314.853 421.133 315.063 420.942 315.204C420.752 315.345 420.513 315.404 420.279 315.369L420.271 315.367Z" fill="#3F3D56"/>
<path d="M457.068 309.256L447.413 310.275L458.706 214.741C458.706 214.741 471.601 212.406 471.946 213.342C472.158 213.901 457.16 308.644 457.068 309.256Z" fill="#3F3D56"/>
<path d="M331.25 182.533L330.99 226.1L408.116 255.488L435.813 218.284L331.25 182.533Z" fill="#3F3D56"/>
<path d="M502.483 210.118C501.838 209.307 500.97 208.704 499.986 208.381L401.58 175.603C401.304 175.51 401.02 175.441 400.732 175.397C400.418 175.343 400.1 175.319 399.782 175.326L399.941 174.328L400.926 173.615L424.295 156.696L502.335 180.613L502.471 207.665L502.483 210.118Z" fill="#3F3D56"/>
<path d="M335.181 252.472C335.291 252.483 335.401 252.506 335.507 252.541L365.7 262.458C366.078 262.582 366.391 262.851 366.571 263.206C366.751 263.561 366.782 263.973 366.658 264.351C366.534 264.729 366.265 265.042 365.91 265.222C365.555 265.401 365.143 265.433 364.765 265.308L334.571 255.392C334.22 255.276 333.925 255.036 333.74 254.717C333.556 254.397 333.495 254.021 333.571 253.66C333.646 253.298 333.852 252.978 334.149 252.759C334.446 252.54 334.813 252.438 335.181 252.472Z" fill="white"/>
<path d="M457.003 435.236C463.631 435.236 469.003 429.863 469.003 423.236C469.003 416.608 463.631 411.236 457.003 411.236C450.376 411.236 445.003 416.608 445.003 423.236C445.003 429.863 450.376 435.236 457.003 435.236Z" fill="#F2F2F2"/>
<path d="M151.003 479.236C157.631 479.236 163.003 473.863 163.003 467.236C163.003 460.608 157.631 455.236 151.003 455.236C144.376 455.236 139.003 460.608 139.003 467.236C139.003 473.863 144.376 479.236 151.003 479.236Z" fill="#F2F2F2"/>
<path d="M401.003 82.2358C407.631 82.2358 413.003 76.8633 413.003 70.2358C413.003 63.6084 407.631 58.2358 401.003 58.2358C394.376 58.2358 389.003 63.6084 389.003 70.2358C389.003 76.8633 394.376 82.2358 401.003 82.2358Z" fill="#F2F2F2"/>
<path d="M420.692 270.121C419.137 270.797 417.452 271.124 415.757 271.078C414.062 271.032 412.397 270.615 410.881 269.857C409.364 269.098 408.032 268.016 406.979 266.687C405.926 265.358 405.177 263.814 404.785 262.164L363.773 258.021L377.303 241.415L414.174 247.895C416.989 247.42 419.881 247.995 422.301 249.509C424.721 251.024 426.502 253.374 427.305 256.113C428.109 258.853 427.879 261.792 426.66 264.374C425.441 266.956 423.318 269.001 420.692 270.121Z" fill="#FFB8B8"/>
<path d="M395.467 263.534L299.758 254.715L299.627 254.564L229.776 174.528C225.179 167.485 223.448 158.952 224.938 150.674C226.428 142.397 231.025 135.002 237.789 130.004C241.532 127.246 245.816 125.312 250.36 124.328C254.904 123.345 259.605 123.335 264.153 124.3C268.701 125.264 272.994 127.181 276.748 129.924C280.502 132.667 283.632 136.173 285.933 140.213L328.955 215.758L396.521 242.905L395.467 263.534Z" fill="#E6E6E6"/>
<path d="M635.69 109.617C633.313 92.1828 630.332 73.4649 618.036 60.8797C614.134 56.8865 609.465 53.7247 604.308 51.585C599.151 49.4452 593.615 48.3719 588.032 48.4297C582.449 48.4875 576.936 49.6752 571.825 51.9212C566.714 54.1672 562.11 57.4249 558.292 61.4981C549.341 71.0469 545.389 84.4548 545.027 97.538C544.665 110.621 547.579 123.559 550.811 136.241C567.917 136.583 584.897 133.241 600.597 126.442C604.523 124.738 608.386 122.811 612.534 121.756C616.682 120.7 619.638 123.357 623.497 125.209L625.615 121.154C627.349 124.38 632.717 123.424 634.665 120.321C636.612 117.219 636.185 113.246 635.69 109.617Z" fill="#2F2E41"/>
<path d="M567.884 206.925L498.008 208.42C496.935 206.565 495.346 205.062 493.434 204.094C491.522 203.125 489.37 202.733 487.24 202.966C485.11 203.198 483.093 204.045 481.435 205.402C479.777 206.76 478.549 208.57 477.901 210.613C477.254 212.656 477.213 214.842 477.786 216.908C478.358 218.973 479.518 220.827 481.125 222.245C482.732 223.662 484.716 224.582 486.837 224.893C488.957 225.204 491.122 224.891 493.068 223.994C502.335 224.52 574.84 234.811 579.165 228.179C583.556 221.448 606.99 197.693 606.99 197.693L588.977 172.049L567.884 206.925Z" fill="#9E616A"/>
<path d="M584.911 126.865C603.043 126.865 617.741 112.167 617.741 94.0352C617.741 75.9036 603.043 61.2051 584.911 61.2051C566.779 61.2051 552.081 75.9036 552.081 94.0352C552.081 112.167 566.779 126.865 584.911 126.865Z" fill="#9E616A"/>
<path d="M637.494 157.204C633.625 149.504 631.745 139.992 623.497 137.495C617.927 135.81 595.4 138.336 590.324 141.181C581.88 145.914 589.532 154.784 584.55 163.083C579.135 172.106 564.418 190.213 559.003 199.236C555.28 205.439 567.82 223.645 565.807 230.594C563.795 237.542 563.698 245.341 567.127 251.711C570.196 257.412 565.755 262.456 568.842 268.148C572.052 274.068 575.99 296.201 573.003 302.236L571.003 308.236C590.85 309.402 607.538 285.692 627.261 283.194C632.16 282.574 637.247 281.763 641.284 278.92C647.23 274.731 649.581 267.13 651.05 260.007C658.121 225.186 653.349 189.001 637.494 157.204Z" fill="#3F3D56"/>
<path d="M667.249 238.505C664.485 230.96 659.48 197.969 659.48 197.969L628.156 197.05L643.471 234.822L601.68 293.325C601.68 293.325 601.758 293.454 601.898 293.683C599.701 293.33 597.449 293.649 595.436 294.598C593.423 295.547 591.743 297.081 590.617 299C589.49 300.919 588.969 303.133 589.121 305.353C589.274 307.573 590.093 309.696 591.472 311.442C592.851 313.189 594.725 314.479 596.848 315.143C598.972 315.808 601.247 315.815 603.375 315.165C605.504 314.516 607.386 313.238 608.777 311.501C610.167 309.763 611 307.647 611.168 305.428C611.322 305.516 611.502 305.548 611.677 305.518C611.852 305.488 612.01 305.398 612.126 305.263C616.776 299.428 670.014 246.051 667.249 238.505Z" fill="#9E616A"/>
<path d="M670.434 217.67C667.559 205.535 664.663 193.335 659.815 181.845C654.968 170.354 648.029 159.502 638.269 151.739C635.148 149.257 631.66 147.067 627.748 146.295C623.836 145.524 619.428 146.387 616.681 149.277C612.285 153.9 613.608 161.322 615.22 167.494C619.974 185.695 624.729 203.895 629.483 222.096C643.212 220.64 656.942 219.185 670.671 217.73L670.434 217.67Z" fill="#3F3D56"/>
<path d="M625.139 98.5888C623.93 90.6468 622.667 82.6384 619.826 75.1603C616.986 67.6821 612.408 60.6778 605.84 56.4414C595.441 49.7343 581.978 51.0279 570.319 54.886C561.303 57.8697 552.502 62.4046 546.143 69.6953C539.785 76.986 536.214 87.3891 538.579 96.922C551.016 93.9837 563.452 91.0454 575.888 88.1071L574.527 89.0691C578.61 91.1053 582.176 94.045 584.954 97.6651C587.731 101.285 589.648 105.49 590.557 109.962C591.447 114.488 591.319 119.154 590.184 123.625C589.048 128.095 586.933 132.257 583.992 135.81C592.474 132.801 600.955 129.792 609.437 126.783C614.672 124.926 620.275 122.786 623.38 118.023C626.979 112.5 626.143 105.18 625.139 98.5888Z" fill="#2F2E41"/>
</g>
<defs>
<clipPath id="clip0_44_112">
<rect width="862.703" height="644.786" fill="white"/>
</clipPath>
</defs>
</svg>
